<?xml version="1.0" standalone="no"?>
<!DOCTYPE svg PUBLIC "-//W3C//DTD SVG 20010904//EN"
 "http://www.w3.org/TR/2001/REC-SVG-20010904/DTD/svg10.dtd">
<svg version="1.0" xmlns="http://www.w3.org/2000/svg"
 width="800.000000pt" height="800.000000pt" viewBox="0 0 800.000000 800.000000"
 preserveAspectRatio="xMidYMid meet">
<metadata>
Created by potrace 1.11, written by Peter Selinger 2001-2013
</metadata>
<g transform="translate(0.000000,800.000000) scale(0.100000,-0.100000)"
fill="#000000" stroke="none">
<path d="M3880 5620 c0 -3 -26 -7 -57 -8 -32 -1 -80 -6 -108 -12 -27 -6 -62
-11 -77 -10 -16 0 -28 -4 -28 -9 0 -5 -8 -10 -17 -11 -53 -2 -73 -6 -73 -12 0
-3 -34 -17 -75 -29 -41 -13 -75 -27 -75 -32 0 -4 -4 -5 -10 -2 -5 3 -10 2 -10
-3 0 -5 -13 -12 -30 -15 -16 -4 -47 -18 -70 -32 -22 -14 -44 -25 -50 -25 -5 0
-10 -4 -10 -9 0 -5 -8 -11 -17 -14 -30 -10 -75 -39 -139 -89 -22 -18 -56 -44
-74 -58 -48 -36 -190 -177 -190 -189 0 -5 -11 -18 -25 -29 -14 -11 -25 -23
-25 -26 0 -4 -17 -29 -37 -56 -48 -62 -93 -134 -93 -149 0 -6 -4 -11 -9 -11
-4 0 -23 -33 -40 -72 -18 -40 -39 -86 -46 -103 -13 -29 -27 -65 -29 -75 -1 -3
-5 -11 -9 -17 -5 -7 -6 -17 -2 -22 3 -5 1 -12 -4 -15 -9 -6 -25 -64 -22 -83 1
-7 -3 -13 -8 -13 -6 0 -10 -10 -10 -22 1 -13 -4 -45 -10 -73 -7 -27 -12 -78
-13 -112 0 -35 -3 -63 -7 -63 -4 0 -8 -54 -8 -120 0 -66 3 -120 6 -120 4 0 7
-26 8 -57 1 -32 6 -80 13 -108 6 -27 11 -57 11 -65 0 -8 3 -22 6 -30 8 -19 7
-17 16 -62 5 -21 12 -38 17 -38 4 0 6 -9 3 -20 -3 -11 -1 -20 5 -20 6 0 9 -9
7 -20 -2 -11 0 -20 6 -20 5 0 9 -8 9 -18 0 -10 6 -26 14 -37 8 -11 19 -39 26
-63 7 -23 17 -42 22 -42 4 0 7 -3 6 -7 -3 -13 25 -63 34 -63 5 0 6 -4 3 -10
-3 -5 -2 -10 3 -10 6 0 13 -11 16 -25 4 -14 10 -23 15 -20 5 2 12 -6 15 -20 4
-14 36 -61 71 -105 36 -44 65 -83 65 -86 0 -19 277 -264 299 -264 6 0 14 -6
18 -12 8 -13 28 -26 88 -57 16 -9 32 -19 35 -22 11 -13 106 -59 122 -59 9 0
23 -6 30 -13 7 -7 15 -14 18 -15 8 -1 39 -11 58 -19 9 -3 22 -7 27 -8 6 0 23
-6 38 -13 16 -7 34 -12 41 -12 7 0 16 -3 20 -8 4 -4 16 -8 27 -8 10 -1 20 -3
22 -4 1 -1 11 -4 22 -5 11 -2 43 -8 70 -15 28 -6 78 -12 113 -12 34 -1 62 -4
62 -8 0 -15 311 1 405 20 33 7 70 12 83 11 12 0 22 4 22 10 0 5 6 9 13 8 19
-3 77 13 83 22 3 5 10 7 15 4 5 -4 15 -3 22 2 6 4 14 8 17 9 38 7 270 116 270
126 0 4 6 8 14 8 7 0 19 7 26 15 7 8 16 12 21 9 5 -3 9 0 9 5 0 6 7 11 15 11
9 0 18 7 21 15 4 8 11 15 16 15 10 0 63 41 103 80 12 11 24 20 28 20 11 0 167
158 167 169 0 5 11 18 25 29 14 11 25 24 25 29 0 5 11 20 25 33 14 13 25 29
25 36 0 7 6 17 13 21 12 8 27 31 59 92 10 19 21 37 25 40 13 10 53 97 53 115
0 9 5 16 11 16 5 0 8 4 5 9 -4 5 -3 11 2 13 4 1 20 41 35 88 16 47 31 92 34
100 4 8 7 22 8 30 1 8 4 22 8 30 3 8 6 22 6 30 0 8 5 38 12 65 6 28 12 76 12
108 0 31 3 57 7 57 6 0 6 220 0 230 -2 3 -4 32 -6 65 -1 33 -7 83 -14 110 -6
28 -11 57 -11 65 0 8 -3 22 -6 30 -8 19 -7 17 -16 63 -5 20 -12 37 -17 37 -4
0 -6 9 -3 20 3 11 1 20 -5 20 -6 0 -9 9 -7 20 2 11 0 20 -6 20 -5 0 -9 8 -9
18 0 10 -6 26 -14 37 -8 11 -19 39 -26 63 -7 23 -17 42 -22 42 -4 0 -7 3 -6 8
3 11 -35 82 -44 82 -4 0 -8 4 -8 10 0 9 -39 72 -60 97 -5 7 -10 15 -10 18 0
12 -105 136 -181 213 -79 79 -201 182 -218 182 -6 0 -14 6 -18 13 -9 14 -59
45 -85 54 -10 3 -18 9 -18 14 0 5 -5 9 -10 9 -6 0 -28 11 -49 24 -21 14 -57
29 -80 36 -22 6 -41 15 -41 20 0 6 -3 9 -7 8 -5 0 -15 1 -23 4 -8 4 -24 9 -35
14 -11 4 -24 8 -30 9 -5 0 -23 6 -38 13 -16 7 -35 12 -43 12 -8 0 -14 4 -14 9
0 6 -10 8 -22 6 -12 -3 -27 0 -35 6 -7 6 -22 9 -33 6 -11 -3 -23 -1 -26 4 -3
5 -21 9 -40 9 -19 0 -34 4 -34 8 0 4 -29 7 -65 6 -36 -1 -65 1 -65 5 0 5 -54
8 -120 7 -66 0 -120 -3 -120 -6z m200 -173 c15 -6 120 -17 173 -18 15 -1 27
-5 27 -10 0 -5 3 -8 8 -7 15 4 102 -14 107 -22 3 -5 11 -7 18 -4 8 3 27 -2 43
-11 16 -8 35 -15 42 -15 8 0 26 -6 40 -14 43 -22 86 -40 95 -38 4 1 7 -3 7
-10 0 -6 3 -9 6 -5 3 3 24 -8 47 -24 22 -16 44 -29 50 -29 5 0 26 -13 47 -30
20 -16 40 -27 43 -23 4 3 9 -2 13 -11 3 -9 12 -16 20 -16 17 0 294 -277 294
-294 0 -8 7 -17 16 -20 9 -4 14 -9 11 -13 -4 -3 7 -23 23 -43 17 -21 30 -42
30 -47 0 -6 13 -28 29 -50 16 -23 27 -44 24 -47 -4 -3 -1 -6 6 -6 8 0 11 -7 7
-15 -3 -8 -1 -15 4 -15 5 0 11 -10 15 -22 3 -13 10 -32 15 -43 20 -43 33 -80
31 -89 -1 -4 3 -13 8 -20 13 -15 34 -104 32 -133 0 -13 3 -23 7 -23 4 0 9 -12
10 -27 1 -16 6 -66 12 -113 15 -138 17 -184 7 -204 -5 -11 -9 -48 -8 -82 1
-34 -3 -65 -8 -68 -5 -4 -7 -20 -5 -36 3 -17 1 -30 -4 -30 -5 0 -9 -10 -9 -22
0 -23 -10 -70 -20 -98 -4 -8 -7 -18 -8 -22 -2 -5 -4 -10 -5 -13 -1 -3 -3 -8
-4 -12 -1 -7 -16 -47 -36 -98 -9 -24 -68 -145 -93 -192 -9 -18 -22 -33 -27
-33 -6 0 -10 -6 -10 -14 0 -7 -7 -19 -15 -26 -9 -7 -13 -15 -11 -17 3 -3 1
-10 -5 -17 -113 -138 -279 -302 -322 -319 -9 -3 -17 -11 -17 -17 0 -5 -5 -10
-11 -10 -6 0 -25 -10 -42 -22 -31 -23 -68 -44 -117 -70 -14 -7 -28 -16 -31
-21 -3 -5 -8 -8 -10 -7 -4 2 -35 -10 -94 -36 -49 -21 -69 -27 -82 -25 -7 1
-13 -2 -13 -7 0 -5 -6 -9 -12 -10 -7 0 -41 -7 -75 -15 -34 -8 -65 -12 -68 -9
-3 3 -5 1 -5 -5 0 -6 -12 -11 -27 -12 -109 -6 -162 -10 -188 -17 -36 -9 -69
-8 -190 6 -49 6 -105 11 -122 11 -18 0 -33 5 -33 10 0 5 -6 9 -12 7 -31 -5
-226 51 -256 75 -7 5 -15 7 -18 4 -4 -3 -23 4 -43 16 -20 13 -47 28 -61 35
-30 14 -51 27 -107 64 -23 15 -46 28 -52 28 -6 0 -11 4 -11 8 0 4 -15 16 -32
27 -42 24 -288 272 -288 290 0 7 -4 15 -9 17 -5 2 -11 9 -13 17 -2 7 -14 25
-26 40 -13 14 -32 42 -42 61 -9 19 -31 60 -48 90 -18 30 -32 63 -32 73 0 9 -5
17 -10 17 -6 0 -10 6 -9 13 1 6 -4 26 -11 42 -7 17 -12 34 -11 39 1 4 -3 14
-8 20 -12 14 -36 115 -32 134 1 8 -3 19 -9 27 -6 7 -9 25 -6 39 3 14 0 26 -5
26 -5 0 -9 28 -8 63 1 35 -3 72 -8 83 -10 20 -10 119 0 144 3 8 8 42 10 75 6
72 10 99 32 190 9 39 17 76 18 83 0 6 4 12 9 12 5 0 8 6 7 13 -1 6 3 26 11 42
7 17 16 39 20 50 9 23 67 143 93 192 9 18 22 33 27 33 6 0 10 4 10 10 0 15 52
93 90 136 90 100 242 244 258 244 5 0 13 7 16 16 3 8 10 13 15 10 5 -3 14 1
21 9 7 8 18 15 25 15 7 0 15 7 19 15 3 8 12 15 21 15 8 0 15 5 15 12 0 6 3 9
6 5 4 -3 22 5 40 20 19 14 34 23 34 19 0 -3 18 5 39 18 21 14 41 23 44 20 3
-3 16 1 29 9 12 8 37 18 53 22 42 12 44 12 50 15 3 1 8 3 13 4 4 2 27 8 52 16
25 7 55 13 68 13 12 0 22 3 22 8 0 4 15 8 33 9 74 2 164 10 190 18 31 8 113 8
137 -1z"/>
<path d="M4745 4867 c-10 -7 -28 -22 -38 -34 -10 -13 -23 -23 -29 -23 -6 0
-19 -10 -29 -22 -11 -11 -19 -18 -19 -13 0 8 -90 -62 -102 -80 -4 -5 -8 -7 -8
-2 0 4 -8 -1 -18 -10 -11 -10 -47 -38 -82 -63 -35 -25 -68 -49 -74 -55 -6 -5
-38 -30 -71 -55 -59 -45 -77 -59 -115 -92 -11 -10 -22 -18 -25 -18 -10 0 -70
-45 -83 -62 -7 -10 -19 -18 -26 -18 -8 0 -19 -7 -26 -15 -12 -14 -15 -13 -35
5 -12 11 -26 20 -31 20 -5 0 -20 14 -34 30 -14 17 -29 30 -34 30 -5 0 -33 20
-62 45 -28 25 -55 45 -58 45 -3 0 -18 11 -33 25 -48 43 -153 127 -153 122 0
-3 -15 8 -32 23 -78 69 -168 140 -176 140 -5 0 -18 11 -28 25 -10 14 -23 25
-28 25 -5 0 -18 7 -28 17 -10 9 -21 14 -23 11 -5 -5 -7 -712 -5 -1468 l0 -186
80 0 80 -1 0 191 c0 105 0 401 0 659 0 257 3 467 7 467 5 0 14 -9 21 -21 7
-12 16 -18 20 -15 3 4 18 -5 32 -19 23 -23 54 -49 140 -115 61 -47 165 -134
172 -145 4 -5 8 -6 8 -2 0 4 11 -3 24 -17 13 -15 27 -26 30 -26 22 0 242 -198
273 -246 33 -49 64 -123 70 -162 3 -23 9 -45 13 -47 11 -7 -15 -114 -39 -162
-23 -46 -97 -123 -118 -123 -7 0 -13 -4 -13 -10 0 -5 -3 -9 -7 -8 -5 1 -28 -4
-53 -11 -25 -7 -49 -14 -55 -16 -5 -1 -18 -5 -28 -10 -10 -4 -21 -5 -24 -1 -3
3 -6 144 -6 314 0 244 -3 310 -14 320 -7 7 -13 10 -13 7 0 -5 -69 43 -106 74
-6 5 -15 6 -20 3 -5 -4 -9 -190 -9 -427 l1 -420 107 -5 c59 -3 122 -1 140 3
17 5 42 8 55 8 12 -1 22 3 22 8 0 5 8 8 18 8 26 0 62 14 62 24 0 5 4 8 8 6 17
-5 112 55 141 91 47 56 51 61 51 68 0 3 9 19 21 35 11 16 18 29 15 29 -3 0 2
17 11 38 16 37 26 229 12 238 -3 2 -9 22 -13 45 -7 42 -32 97 -51 111 -5 4 -6
8 -2 8 5 0 -1 13 -12 29 -12 16 -21 32 -21 36 0 4 -13 20 -30 37 -16 16 -30
34 -30 39 0 6 -3 9 -7 7 -5 -2 -23 11 -41 29 l-33 33 24 23 c51 49 85 75 91
70 3 -4 6 -2 6 4 0 6 21 25 48 41 26 17 63 46 83 64 20 18 46 40 58 48 24 15
82 59 113 85 9 7 27 21 40 29 l23 15 -1 -654 0 -655 78 0 c55 0 78 4 79 13 4
47 3 1627 -1 1626 -3 0 -14 -6 -25 -12z"/>
</g>
</svg>
