<svg xmlns="http://www.w3.org/2000/svg" width="2270" height="2500" viewBox="0 0 256 282" preserveAspectRatio="xMinYMin meet"><g fill="#8CC84B"><path d="M116.5 3.58c6.97-3.98 16.03-4 23 0 35 19.77 70 39.52 104.98 59.3 6.58 3.7 10.98 11.03 10.92 18.62v118.97c.05 7.9-4.8 15.4-11.73 19-34.88 19.68-69.75 39.37-104.62 59.03-7.1 4.07-16.36 3.75-23.24-.64-10.45-6.07-20.92-12.1-31.38-18.15-2.14-1.27-4.55-2.28-6.06-4.35 1.34-1.8 3.72-2.03 5.66-2.8 4.37-1.4 8.38-3.63 12.4-5.8 1-.68 2.24-.42 3.2.2 8.95 5.13 17.8 10.4 26.8 15.5 1.9 1.1 3.84-.38 5.47-1.3 34.22-19.33 68.5-38.6 102.7-57.96 1.28-.62 1.98-1.96 1.88-3.35.02-39.25 0-78.5 0-117.74.16-1.57-.75-3.02-2.18-3.66-34.76-19.58-69.5-39.18-104.25-58.76a3.62 3.62 0 0 0-4.1 0C91.2 39.25 56.47 58.87 21.7 78.44c-1.4.65-2.36 2.07-2.2 3.66 0 39.25 0 78.5 0 117.76a3.33 3.33 0 0 0 1.9 3.3c9.27 5.26 18.56 10.48 27.84 15.72 5.23 2.8 11.64 4.5 17.4 2.33 5.1-1.8 8.65-7 8.55-12.4.04-39-.03-78.03.03-117.04-.13-1.74 1.52-3.17 3.2-3 4.46-.03 8.92-.06 13.37 0 1.86-.03 3.14 1.83 2.9 3.58 0 39.26.06 78.52-.02 117.8.02 10.45-4.28 21.84-13.96 26.96-11.93 6.17-26.66 4.86-38.44-1.06-10.2-5.1-19.93-11.1-29.95-16.55C5.37 215.9.55 208.35.6 200.46V81.5c-.07-7.74 4.5-15.2 11.3-18.85C46.76 42.97 81.63 23.27 116.5 3.58zM146.93 86c15.2-1 31.5-.6 45.18 6.9 10.6 5.74 16.48 17.8 16.67 29.57-.3 1.6-1.96 2.46-3.48 2.35-4.42 0-8.83.06-13.25-.03-1.87.07-2.96-1.66-3.2-3.32-1.26-5.63-4.33-11.2-9.63-13.92-8.14-4.08-17.58-3.87-26.45-3.8-6.48.35-13.45.92-18.94 4.73-4.2 2.87-5.5 8.7-4 13.4 1.43 3.36 5.32 4.45 8.5 5.45 18.33 4.8 37.75 4.32 55.73 10.62 7.45 2.58 14.73 7.58 17.28 15.37 3.33 10.45 1.87 22.93-5.56 31.32-6.03 6.9-14.8 10.65-23.56 12.7-11.65 2.6-23.74 2.66-35.56 1.5-11.13-1.26-22.7-4.2-31.3-11.76-7.33-6.38-10.9-16.3-10.56-25.9.1-1.62 1.7-2.75 3.25-2.6 4.44-.05 8.9-.06 13.33 0 1.78-.13 3.1 1.4 3.18 3.07.82 5.37 2.84 11 7.52 14.18 9.03 5.83 20.37 5.43 30.7 5.6 8.58-.38 18.2-.5 25.2-6.16 3.68-3.24 4.77-8.65 3.77-13.3-1.08-3.92-5.18-5.75-8.7-6.95-18.1-5.72-37.75-3.64-55.67-10.12-7.27-2.57-14.3-7.43-17.1-14.9-3.9-10.58-2.1-23.66 6.1-31.77 8-8.06 19.56-11.16 30.55-12.27z"/></g></svg>