<svg xmlns="http://www.w3.org/2000/svg" width="432.071pt" height="445.383pt" viewBox="0 0 432.071 445.383"><g fill="none" stroke="#fff" stroke-width="12.465" stroke-linecap="round" stroke-linejoin="round"><path fill="#000" stroke="#000" stroke-width="37.395" d="M323.2 324.23c2.84-23.6 2-27.07 19.57-23.24l4.46.38c13.52.61 31.2-2.17 41.6-7 22.35-10.38 35.6-27.7 13.56-23.15-50.3 10.38-53.76-6.65-53.76-6.65 53.1-78.8 75.3-178.84 56.14-203.32-52.27-66.8-142.74-35.2-144.26-34.4l-.48.1c-9.94-2.06-21.06-3.3-33.55-3.5-22.78-.37-40.05 5.97-53.15 15.9 0 0-161.4-66.5-153.9 83.63 1.6 31.93 45.78 241.65 98.47 178.3 19.26-23.16 37.87-42.74 37.87-42.74 9.24 6.14 20.3 9.27 31.9 8.14l.9-.76c-.28 2.87-.15 5.7.36 9.02-13.57 15.16-9.58 17.83-36.72 23.4-27.46 5.67-11.33 15.75-.8 18.38 12.77 3.2 42.3 7.72 62.27-20.22l-.78 3.18c5.32 4.26 4.96 30.62 5.72 49.46.75 18.83 2 36.4 5.85 46.77 3.83 10.36 8.36 37.05 44.03 29.4 29.8-6.38 52.6-15.58 54.67-101.1" stroke-linecap="butt" stroke-linejoin="miter"/><path fill="#336791" stroke="none" d="M402.4 271.23c-50.3 10.38-53.76-6.66-53.76-6.66 53.1-78.8 75.3-178.84 56.15-203.32-52.28-66.8-142.76-35.2-144.27-34.38l-.5.1c-9.93-2.08-21.05-3.3-33.55-3.5-22.76-.38-40.03 5.96-53.13 15.9 0 0-161.4-66.5-153.9 83.62 1.6 31.93 45.78 241.65 98.47 178.3 19.26-23.16 37.87-42.74 37.87-42.74 9.23 6.14 20.3 9.27 31.9 8.14l.9-.76c-.28 2.87-.15 5.7.36 9.02-13.58 15.16-9.6 17.83-36.72 23.4-27.46 5.67-11.33 15.75-.8 18.38 12.77 3.2 42.3 7.72 62.27-20.22l-.8 3.18c5.33 4.26 9.06 27.72 8.44 48.97-.63 21.26-1.05 35.86 3.14 47.26 4.2 11.4 8.37 37.05 44.05 29.4 29.8-6.38 45.25-22.94 47.4-50.55 1.53-19.63 4.98-16.73 5.2-34.28l2.76-8.3c3.2-26.62.5-35.2 18.87-31.2l4.46.38c13.52.6 31.2-2.18 41.6-7 22.35-10.38 35.6-27.7 13.56-23.15z"/><path d="M215.87 286.48c-1.4 49.52.34 99.38 5.2 111.5 4.84 12.12 15.2 35.7 50.9 28.04 29.8-6.4 40.64-18.75 45.35-46.05 3.46-20.08 10.14-75.85 11-87.28M173.1 38.26s-161.52-66.02-154 84.1c1.6 31.94 45.77 241.67 98.47 178.32 19.25-23.17 36.67-41.33 36.67-41.33M260.35 26.2c-5.6 1.76 89.85-34.88 144.1 34.42 19.14 24.5-3.06 124.52-56.17 203.33M348.28 263.95s3.46 17.04 53.77 6.66c22.04-4.55 8.77 12.78-13.58 23.16-18.35 8.5-59.48 10.7-60.15-1.07-1.73-30.36 21.65-21.14 19.96-28.75-1.52-6.85-11.98-13.57-18.9-30.34-6.03-14.62-82.8-126.83 21.3-110.17 3.8-.8-27.15-99-124.56-100.6-97.38-1.6-94.2 119.76-94.2 119.76"/><path d="M188.6 274.33c-13.57 15.17-9.58 17.83-36.72 23.42-27.46 5.66-11.32 15.73-.8 18.37 12.77 3.2 42.3 7.7 62.27-20.23 6.08-8.52-.04-22.1-8.38-25.56-4.04-1.67-9.43-3.77-16.37 4zM187.72 274.07c-1.37-8.92 2.93-19.53 7.53-31.94 6.92-18.63 22.9-37.26 10.12-96.34-9.53-44.04-73.4-9.18-73.44-3.2-.04 5.96 2.9 30.26-1.07 58.54-5.16 36.92 23.5 68.14 56.48 64.94"/><path fill="#fff" d="M172.52 141.7c-.3 2.04 3.73 7.48 8.97 8.2 5.23.74 9.7-3.52 10-5.55.27-2.04-3.74-4.3-9-5.02-5.22-.73-9.7.34-9.98 2.37zM331.94 137.54c.28 2.04-3.73 7.48-8.98 8.2-5.23.74-9.7-3.5-10-5.55-.28-2.05 3.74-4.3 8.98-5.02 5.24-.73 9.72.33 10 2.36z"/><path d="M350.68 123.43c.86 16-3.45 26.9-4 43.92-.8 24.74 11.8 53.07-7.18 81.43M0 60.23"/></g></svg>